<svg width="60" height="60" viewBox="0 0 60 60" fill="none" xmlns="http://www.w3.org/2000/svg">
<g clip-path="url(#clip0_236_508)">
<path d="M30 5.40234C38.0156 5.40234 38.9648 5.4375 42.1172 5.57812C45.0469 5.70703 46.6289 6.19922 47.6836 6.60938C49.0781 7.14844 50.0859 7.80469 51.1289 8.84766C52.1836 9.90234 52.8281 10.8984 53.3672 12.293C53.7773 13.3477 54.2695 14.9414 54.3984 17.8594C54.5391 21.0234 54.5742 21.9727 54.5742 29.9766C54.5742 37.9922 54.5391 38.9414 54.3984 42.0938C54.2695 45.0234 53.7773 46.6055 53.3672 47.6602C52.8281 49.0547 52.1719 50.0625 51.1289 51.1055C50.0742 52.1602 49.0781 52.8047 47.6836 53.3438C46.6289 53.7539 45.0352 54.2461 42.1172 54.375C38.9531 54.5156 38.0039 54.5508 30 54.5508C21.9844 54.5508 21.0352 54.5156 17.8828 54.375C14.9531 54.2461 13.3711 53.7539 12.3164 53.3438C10.9219 52.8047 9.91406 52.1484 8.87109 51.1055C7.81641 50.0508 7.17188 49.0547 6.63281 47.6602C6.22266 46.6055 5.73047 45.0117 5.60156 42.0938C5.46094 38.9297 5.42578 37.9805 5.42578 29.9766C5.42578 21.9609 5.46094 21.0117 5.60156 17.8594C5.73047 14.9297 6.22266 13.3477 6.63281 12.293C7.17188 10.8984 7.82812 9.89062 8.87109 8.84766C9.92578 7.79297 10.9219 7.14844 12.3164 6.60938C13.3711 6.19922 14.9648 5.70703 17.8828 5.57812C21.0352 5.4375 21.9844 5.40234 30 5.40234ZM30 0C21.8555 0 20.8359 0.0351562 17.6367 0.175781C14.4492 0.316406 12.2578 0.832031 10.3594 1.57031C8.37891 2.34375 6.70313 3.36328 5.03906 5.03906C3.36328 6.70312 2.34375 8.37891 1.57031 10.3477C0.832031 12.2578 0.316406 14.4375 0.175781 17.625C0.0351563 20.8359 0 21.8555 0 30C0 38.1445 0.0351563 39.1641 0.175781 42.3633C0.316406 45.5508 0.832031 47.7422 1.57031 49.6406C2.34375 51.6211 3.36328 53.2969 5.03906 54.9609C6.70313 56.625 8.37891 57.6562 10.3477 58.418C12.2578 59.1562 14.4375 59.6719 17.625 59.8125C20.8242 59.9531 21.8438 59.9883 29.9883 59.9883C38.1328 59.9883 39.1523 59.9531 42.3516 59.8125C45.5391 59.6719 47.7305 59.1562 49.6289 58.418C51.5977 57.6562 53.2734 56.625 54.9375 54.9609C56.6016 53.2969 57.6328 51.6211 58.3945 49.6523C59.1328 47.7422 59.6484 45.5625 59.7891 42.375C59.9297 39.1758 59.9648 38.1562 59.9648 30.0117C59.9648 21.8672 59.9297 20.8477 59.7891 17.6484C59.6484 14.4609 59.1328 12.2695 58.3945 10.3711C57.6562 8.37891 56.6367 6.70312 54.9609 5.03906C53.2969 3.375 51.6211 2.34375 49.6523 1.58203C47.7422 0.84375 45.5625 0.328125 42.375 0.1875C39.1641 0.0351563 38.1445 0 30 0Z" fill="#000100"/>
<path d="M30 14.5898C21.4922 14.5898 14.5898 21.4922 14.5898 30C14.5898 38.5078 21.4922 45.4102 30 45.4102C38.5078 45.4102 45.4102 38.5078 45.4102 30C45.4102 21.4922 38.5078 14.5898 30 14.5898ZM30 39.9961C24.4805 39.9961 20.0039 35.5195 20.0039 30C20.0039 24.4805 24.4805 20.0039 30 20.0039C35.5195 20.0039 39.9961 24.4805 39.9961 30C39.9961 35.5195 35.5195 39.9961 30 39.9961Z" fill="#000100"/>
<path d="M49.6172 13.9805C49.6172 15.9727 48 17.5782 46.0195 17.5782C44.0273 17.5782 42.4219 15.961 42.4219 13.9805C42.4219 11.9883 44.0391 10.3829 46.0195 10.3829C48 10.3829 49.6172 12 49.6172 13.9805Z" fill="#000100"/>
</g>
<defs>
<clipPath id="clip0_236_508">
<rect width="60" height="60" fill="white"/>
</clipPath>
</defs>
</svg>
